<svg width="35" height="35" viewBox="0 0 35 35" fill="none" xmlns="http://www.w3.org/2000/svg">
<path d="M25.0033 19.8461C25.0033 19.8461 24.5281 20.2118 23.8238 20.3019V16.4534C24.2216 16.4661 24.6218 16.5041 25.0022 16.5675L25.0033 19.8461ZM24.9755 2.22786H23.8238V15.4627C24.4117 15.5018 24.9759 15.6291 24.9759 15.6291V2.22786H24.9755ZM23.1981 2.22786H22.0456V15.6291C22.0456 15.6291 22.6087 15.501 23.1981 15.4619V2.22786ZM25.6864 16.9332V19.9153C27.91 20.8414 29.4823 23.1006 29.4823 25.7441C29.4823 29.2115 26.7788 32.0229 23.4446 32.0229C21.5073 32.0229 19.7841 31.0721 18.68 29.5965C18.0934 30.3337 17.4042 30.9831 16.6344 31.5206C18.2683 33.541 20.7419 34.8285 23.5111 34.8285C28.4309 34.8285 32.4195 30.7609 32.4195 25.7437C32.4195 21.4923 29.555 17.9235 25.6864 16.9332ZM23.1981 20.3019V16.4561C22.8018 16.472 22.4071 16.5153 22.0271 16.5815L22.0541 19.8461C22.4531 20.1212 22.8417 20.2543 23.1981 20.3019ZM21.2767 16.9472C20.49 17.155 19.7466 17.47 19.0601 17.8744C19.5895 18.6394 20.0109 19.4831 20.3073 20.3816C20.6134 20.187 20.9369 20.0198 21.2767 19.884V16.9472ZM14.8021 27.6612C15.8922 26.6303 16.5779 25.1404 16.5779 23.4872C16.5779 22.5611 16.3651 21.678 15.9781 20.896C15.1078 22.2992 14.602 23.9605 14.602 25.7441C14.6024 26.4023 14.6717 27.0428 14.8021 27.6612ZM13.5347 14.7065V17.6871C15.7587 18.6131 17.3295 20.8735 17.3295 23.5166C17.3295 26.984 14.6272 29.7954 11.2929 29.7954C7.95866 29.7954 5.25597 26.984 5.25597 23.5166C5.25597 20.8445 6.86195 18.5636 9.12464 17.6569V14.7197C5.28538 15.7309 2.44995 19.2861 2.44995 23.5162C2.44995 28.5335 6.43859 32.601 11.3587 32.601C16.2796 32.601 20.2678 28.5335 20.2678 23.5162C20.2678 19.2652 17.403 15.6961 13.5347 14.7065ZM11.6718 13.2364C12.2592 13.2747 12.8242 13.4012 12.8242 13.4012V0H11.6718V13.2364ZM11.6718 18.0748C12.3761 17.9843 12.8513 17.619 12.8513 17.619L12.8494 14.3401C12.469 14.2766 12.0696 14.2387 11.6718 14.2259V18.0748ZM11.046 0H9.89358V13.4012C9.89358 13.4012 10.4566 13.2728 11.046 13.2352V0ZM11.046 14.229C10.6497 14.2449 10.255 14.2882 9.87578 14.3552L9.90209 17.6194C10.3011 17.8949 10.6892 18.0276 11.046 18.0752V14.229Z" fill="#58019D"/>
</svg>
